<svg width="396" height="350" viewBox="0 0 396 350" fill="none" xmlns="http://www.w3.org/2000/svg">
<path d="M238.965 113.929C165.245 99.4493 113.575 -55.1507 24.3145 38.0294C-39.0255 104.129 31.3745 248.509 120.895 224.369C175.075 209.759 166.255 209.369 218.485 233.889C271.405 258.769 296.385 264.689 339.085 210.349C361.185 182.229 391.085 122.189 359.645 91.1693C320.295 52.3694 284.005 122.769 238.965 113.929Z" fill="#F7F4E7"/>
<path opacity="0.9" d="M238.965 113.929C165.245 99.4493 113.575 -55.1507 24.3145 38.0294C-39.0255 104.129 31.3745 248.509 120.895 224.369C175.075 209.759 166.255 209.369 218.485 233.889C271.405 258.769 296.385 264.689 339.085 210.349C361.185 182.229 391.085 122.189 359.645 91.1693C320.295 52.3694 284.005 122.769 238.965 113.929Z" fill="#F7F4E7"/>
<path opacity="0.1" d="M201.895 349.261C308.977 349.261 395.785 344.193 395.785 337.941C395.785 331.689 308.977 326.621 201.895 326.621C94.8124 326.621 8.00488 331.689 8.00488 337.941C8.00488 344.193 94.8124 349.261 201.895 349.261Z" fill="#1B1005"/>
<path opacity="0.2" d="M202.295 160.57L40.2348 179.51L8.63477 18.94L170.685 0L202.295 160.57Z" fill="#E8C653"/>
<path opacity="0.7" d="M192.864 153.68L46.5845 170.78L18.0645 25.8305L164.344 8.73047L192.864 153.68Z" fill="#E8C653"/>
<path opacity="0.8" d="M85.9053 71.6167C92.453 62.9967 90.2062 50.2703 80.8869 43.1915C71.5677 36.1127 58.705 37.362 52.1573 45.982C45.6097 54.602 47.8565 67.3284 57.1757 74.4072C66.495 81.486 79.3577 80.2367 85.9053 71.6167Z" fill="white"/>
<path opacity="0.2" d="M192.865 153.681L126.255 104.961L104.925 134.301L84.145 119.101L46.585 170.781L81.455 166.611L81.135 167.041L192.865 153.681Z" fill="black"/>
<path d="M100.196 206.824L99.1992 206.902L100.293 220.9L101.29 220.822L100.196 206.824Z" fill="#263238"/>
<path d="M101.685 225.973L100.688 226.051L101.172 232.232L102.169 232.154L101.685 225.973Z" fill="#263238"/>
<path d="M127.145 332.911H242.235C244.109 332.934 245.967 332.563 247.689 331.822C249.411 331.081 250.958 329.986 252.229 328.608C253.5 327.23 254.467 325.601 255.068 323.825C255.668 322.049 255.889 320.167 255.715 318.301L234.185 42.7007C233.812 38.7544 231.999 35.0837 229.092 32.3889C226.185 29.6941 222.388 28.164 218.425 28.0907H103.335C101.463 28.0697 99.6073 28.4426 97.8888 29.1853C96.1704 29.928 94.6273 31.0238 93.3599 32.4016C92.0924 33.7793 91.129 35.4083 90.532 37.1826C89.935 38.9569 89.7178 40.837 89.8946 42.7007L111.395 318.301C111.767 322.245 113.579 325.915 116.484 328.609C119.388 331.304 123.183 332.835 127.145 332.911Z" fill="#263238"/>
<path d="M96.4147 116.54H98.6347C98.9692 116.545 99.301 116.479 99.6082 116.346C99.9154 116.214 100.191 116.018 100.418 115.772C100.644 115.525 100.816 115.234 100.923 114.917C101.029 114.6 101.067 114.263 101.035 113.93L98.5547 82.1004C98.4862 81.3954 98.1611 80.7401 97.6413 80.2589C97.1214 79.7777 96.4429 79.5043 95.7347 79.4904H93.5147C93.1801 79.4861 92.8484 79.5523 92.5412 79.6847C92.2339 79.8172 91.9581 80.013 91.7316 80.2593C91.5051 80.5056 91.3331 80.7968 91.2268 81.1141C91.1205 81.4313 91.0823 81.7674 91.1147 82.1004L93.5947 113.93C93.661 114.636 93.9854 115.293 94.5058 115.774C95.0261 116.256 95.7058 116.529 96.4147 116.54Z" fill="#263238"/>
<path d="M98.2349 148.131H101.745C102 148.136 102.254 148.086 102.488 147.984C102.723 147.883 102.933 147.732 103.104 147.543C103.276 147.353 103.405 147.129 103.483 146.886C103.56 146.642 103.585 146.385 103.555 146.131L102.235 129.131C102.193 128.594 101.952 128.092 101.561 127.722C101.169 127.353 100.653 127.142 100.115 127.131H96.5949C96.3394 127.127 96.0858 127.177 95.8513 127.278C95.6168 127.38 95.4067 127.53 95.2353 127.72C95.0638 127.909 94.9349 128.133 94.8572 128.377C94.7795 128.62 94.7548 128.877 94.7849 129.131L96.1149 146.131C96.157 146.668 96.3973 147.17 96.7891 147.54C97.181 147.91 97.6963 148.12 98.2349 148.131Z" fill="#263238"/>
<path d="M132.155 332.911H247.245C249.119 332.936 250.978 332.566 252.7 331.825C254.422 331.085 255.969 329.989 257.239 328.611C258.51 327.233 259.476 325.603 260.075 323.826C260.674 322.05 260.892 320.167 260.715 318.301L239.185 42.7008C238.816 38.7546 237.006 35.0827 234.1 32.3873C231.195 29.6919 227.397 28.1622 223.435 28.0908H108.345C106.472 28.0684 104.615 28.4403 102.896 29.1824C101.176 29.9244 99.6318 31.02 98.3632 32.3979C97.0947 33.7759 96.1303 35.4053 95.5327 37.1803C94.9352 38.9553 94.7177 40.8363 94.8946 42.7008L116.395 318.301C116.77 322.246 118.583 325.916 121.49 328.61C124.396 331.304 128.192 332.835 132.155 332.911Z" fill="#E8C653"/>
<path opacity="0.2" d="M182.105 318.95C182.265 320.707 183.067 322.343 184.359 323.544C185.651 324.746 187.341 325.428 189.105 325.46C189.941 325.474 190.77 325.311 191.538 324.982C192.307 324.652 192.997 324.164 193.564 323.55C194.13 322.935 194.56 322.207 194.826 321.415C195.092 320.622 195.187 319.782 195.105 318.95C194.945 317.194 194.141 315.559 192.849 314.36C191.557 313.16 189.868 312.48 188.105 312.45C187.27 312.436 186.441 312.599 185.674 312.928C184.906 313.256 184.216 313.743 183.65 314.357C183.083 314.971 182.653 315.697 182.387 316.489C182.12 317.28 182.024 318.119 182.105 318.95Z" fill="black"/>
<path opacity="0.8" d="M115.505 306.84H259.825L239.355 44.9199H95.0449L115.505 306.84Z" fill="white"/>
<path opacity="0.2" d="M183.055 35.851C182.998 35.2291 182.714 34.6502 182.256 34.2256C181.798 33.801 181.199 33.5607 180.575 33.551C180.28 33.547 179.987 33.6051 179.715 33.7216C179.443 33.838 179.199 34.0103 178.998 34.2271C178.798 34.4439 178.645 34.7005 178.549 34.9803C178.454 35.26 178.418 35.5566 178.445 35.851C178.502 36.4745 178.788 37.0548 179.248 37.4796C179.708 37.9045 180.309 38.1437 180.935 38.151C181.23 38.1551 181.523 38.097 181.794 37.9805C182.065 37.8639 182.309 37.6915 182.509 37.4745C182.709 37.2574 182.861 37.0007 182.955 36.721C183.049 36.4412 183.083 36.1448 183.055 35.851Z" fill="black"/>
<path opacity="0.2" d="M172.625 33.551H153.515C153.219 33.547 152.926 33.6051 152.654 33.7216C152.383 33.838 152.139 34.0103 151.938 34.2271C151.737 34.4439 151.584 34.7005 151.489 34.9803C151.393 35.26 151.358 35.5566 151.385 35.851C151.446 36.4712 151.731 37.0476 152.188 37.4713C152.645 37.8951 153.242 38.1369 153.865 38.151H172.985C173.279 38.1536 173.571 38.0944 173.842 37.9773C174.112 37.8602 174.355 37.6878 174.555 37.4711C174.754 37.2544 174.906 36.9983 175.001 36.7193C175.096 36.4402 175.131 36.1445 175.105 35.851C175.046 35.23 174.76 34.6523 174.303 34.2281C173.846 33.804 173.248 33.5629 172.625 33.551Z" fill="black"/>
<path d="M176.3 269.076C181.238 263.941 180.74 255.448 175.186 250.108C169.633 244.768 161.128 244.602 156.19 249.737C151.251 254.872 151.75 263.364 157.303 268.705C162.856 274.045 171.361 274.211 176.3 269.076Z" fill="white"/>
<path d="M216.755 280.701C216.923 282.416 216.727 284.147 216.179 285.781C215.631 287.415 214.744 288.914 213.576 290.181C212.408 291.449 210.985 292.455 209.401 293.133C207.818 293.812 206.108 294.149 204.385 294.121C200.739 294.067 197.242 292.666 194.567 290.189C191.892 287.711 190.228 284.332 189.895 280.701C189.727 278.986 189.924 277.255 190.472 275.621C191.019 273.987 191.906 272.487 193.074 271.22C194.242 269.953 195.665 268.947 197.249 268.268C198.833 267.59 200.542 267.253 202.265 267.281C205.911 267.335 209.408 268.735 212.083 271.213C214.758 273.69 216.422 277.07 216.755 280.701Z" fill="white"/>
<path d="M210.073 247.838C215.012 242.702 214.513 234.21 208.96 228.87C203.407 223.53 194.901 223.363 189.963 228.499C185.025 233.634 185.523 242.126 191.077 247.466C196.63 252.807 205.135 252.973 210.073 247.838Z" fill="white"/>
<path d="M203.454 282.191C203.177 282.191 202.905 282.118 202.664 281.981L165.574 260.701C165.341 260.571 165.143 260.385 164.998 260.16C164.853 259.935 164.766 259.678 164.744 259.411C164.719 259.16 164.763 258.907 164.873 258.679C164.982 258.451 165.152 258.258 165.364 258.121L199.144 236.861C199.493 236.665 199.904 236.61 200.293 236.707C200.681 236.803 201.018 237.045 201.234 237.381C201.352 237.538 201.436 237.717 201.482 237.907C201.528 238.097 201.535 238.294 201.502 238.487C201.469 238.679 201.398 238.863 201.291 239.028C201.185 239.192 201.047 239.333 200.884 239.441L169.154 259.441L204.004 279.441C204.359 279.633 204.627 279.953 204.754 280.336C204.88 280.719 204.855 281.136 204.684 281.501C204.561 281.717 204.382 281.895 204.165 282.017C203.948 282.138 203.703 282.199 203.454 282.191Z" fill="white"/>
<path opacity="0.1" d="M252.334 211.021H116.894L105.774 68.6914H241.214L252.334 211.021Z" fill="black"/>
<path d="M267.074 202.512H124.734L113.614 60.1816H255.954L267.074 202.512Z" fill="white"/>
<path d="M259.605 195.591H131.125L121.085 67.1113H249.565L259.605 195.591Z" fill="#E8C653"/>
<path opacity="0.8" d="M175.229 113.641C181.776 106.834 181.115 95.5775 173.755 88.4992C166.394 81.4209 155.121 81.2012 148.575 88.0084C142.028 94.8156 142.689 106.072 150.049 113.15C157.41 120.229 168.683 120.448 175.229 113.641Z" fill="white"/>
<path opacity="0.2" d="M259.605 195.591L206.815 146.631L185.375 169.891L168.895 154.611L131.125 195.591L161.755 195.511L161.445 195.851L259.605 195.591Z" fill="black"/>
<path d="M330.395 99.0098C330.845 100.01 331.175 100.88 331.505 101.81C331.835 102.74 332.155 103.62 332.455 104.53C333.065 106.34 333.585 108.17 334.085 110C335.065 113.66 335.878 117.346 336.525 121.06L336.765 122.46L336.825 122.8L336.895 123.24C336.952 123.624 336.986 124.011 336.995 124.4C337.02 125.766 336.782 127.124 336.295 128.4C335.496 130.48 334.342 132.405 332.885 134.09C330.313 137.104 327.299 139.71 323.945 141.82L321.265 138.52C323.592 135.954 325.687 133.187 327.525 130.25C328.307 129.011 328.9 127.663 329.285 126.25C329.398 125.789 329.422 125.31 329.355 124.84L328.815 122.75C327.915 119.25 326.955 115.75 325.895 112.36C325.375 110.65 324.815 108.95 324.265 107.26C323.985 106.42 323.695 105.58 323.395 104.76L322.525 102.4L330.395 99.0098Z" fill="#FFB573"/>
<path d="M324.895 140.549L327.475 146.099L323.895 148.169C323.895 148.169 316.945 138.019 322.185 137.689L324.895 140.549Z" fill="#FFB573"/>
<path d="M310.605 329.879C311.35 329.86 312.091 329.759 312.815 329.579C312.852 329.567 312.885 329.547 312.911 329.519C312.938 329.491 312.956 329.456 312.965 329.419C312.971 329.38 312.966 329.341 312.95 329.305C312.934 329.27 312.908 329.24 312.875 329.219C312.585 329.029 310.045 327.389 309.075 327.829C308.964 327.877 308.868 327.955 308.797 328.053C308.727 328.152 308.685 328.268 308.675 328.389C308.636 328.577 308.646 328.773 308.703 328.956C308.761 329.14 308.865 329.306 309.005 329.439C309.468 329.772 310.036 329.929 310.605 329.879ZM312.255 329.299C310.795 329.589 309.695 329.539 309.255 329.149C309.163 329.057 309.096 328.945 309.059 328.82C309.022 328.696 309.017 328.565 309.045 328.439C309.048 328.386 309.066 328.335 309.096 328.291C309.126 328.247 309.167 328.211 309.215 328.189C309.745 327.959 311.215 328.699 312.255 329.299Z" fill="url(#paint0_linear)"/>
<path d="M312.765 329.579H312.865C312.894 329.561 312.919 329.536 312.936 329.507C312.953 329.477 312.963 329.444 312.965 329.409C312.965 329.299 312.965 326.889 312.045 326.089C311.935 325.983 311.802 325.903 311.656 325.857C311.511 325.81 311.356 325.797 311.205 325.819C311.047 325.821 310.895 325.876 310.773 325.976C310.651 326.076 310.567 326.215 310.535 326.369C310.345 327.369 311.865 329.119 312.665 329.579C312.697 329.589 312.732 329.589 312.765 329.579ZM311.345 326.189C311.507 326.193 311.662 326.253 311.785 326.359C312.309 327.138 312.579 328.061 312.555 328.999C311.765 328.359 310.815 326.999 310.925 326.429C310.925 326.339 310.995 326.219 311.255 326.189H311.345Z" fill="url(#paint1_linear)"/>
<path d="M312.034 69.7695C311.034 74.7695 309.034 84.7695 312.484 88.1195C312.484 88.1195 311.124 93.1195 301.884 93.1195C291.734 93.1195 297.034 88.1195 297.034 88.1195C302.574 86.7995 302.434 82.6895 301.464 78.8195L312.034 69.7695Z" fill="#FFB573"/>
<path d="M296.455 89.7483C295.085 89.9483 296.355 86.8183 296.925 86.4883C298.235 85.7083 314.925 84.1383 314.735 85.8983C314.626 86.9418 314.168 87.9181 313.435 88.6683C312.685 89.1983 308.465 87.8183 296.455 89.7483Z" fill="url(#paint2_linear)"/>
<path d="M291.895 59.1084C291.832 59.1092 291.771 59.0951 291.715 59.0673C291.66 59.0395 291.611 58.9987 291.575 58.9484C291.293 58.5381 290.92 58.1995 290.484 57.9598C290.048 57.7202 289.562 57.5861 289.065 57.5684C289.007 57.5776 288.949 57.5742 288.893 57.5585C288.838 57.5429 288.786 57.5153 288.742 57.4777C288.698 57.4402 288.663 57.3936 288.638 57.341C288.614 57.2885 288.602 57.2313 288.602 57.1734C288.602 57.1156 288.614 57.0584 288.638 57.0059C288.663 56.9533 288.698 56.9067 288.742 56.8691C288.786 56.8316 288.838 56.804 288.893 56.7884C288.949 56.7727 289.007 56.7693 289.065 56.7784C289.694 56.7858 290.312 56.9441 290.867 57.2399C291.422 57.5357 291.898 57.9605 292.255 58.4784C292.286 58.5211 292.308 58.5694 292.32 58.6207C292.332 58.6719 292.334 58.7251 292.326 58.7771C292.318 58.8292 292.299 58.8791 292.271 58.9239C292.244 58.9687 292.207 59.0077 292.165 59.0384C292.086 59.0943 291.99 59.1192 291.895 59.1084Z" fill="#263238"/>
<path d="M289.635 63.8789C289.095 65.4454 288.342 66.9296 287.395 68.2889C287.75 68.5195 288.152 68.6703 288.571 68.7307C288.991 68.7911 289.418 68.7598 289.825 68.6389L289.635 63.8789Z" fill="#FF5652"/>
<path d="M290.195 62.6984C290.195 63.3784 289.885 63.9384 289.445 63.9484C289.005 63.9584 288.625 63.4384 288.595 62.7584C288.565 62.0784 288.905 61.5284 289.345 61.5084C289.785 61.4884 290.165 62.0284 290.195 62.6984Z" fill="#263238"/>
<path d="M289.544 61.5387L287.904 61.1387C287.904 61.1387 288.784 62.3687 289.544 61.5387Z" fill="#263238"/>
<path d="M322.505 329.388H314.135L314.785 309.988H323.165L322.505 329.388Z" fill="#FFB573"/>
<path opacity="0.2" d="M323.165 309.988H314.785L314.455 319.988H322.835L323.165 309.988Z" fill="black"/>
<path d="M313.465 328.418H322.895C323.058 328.412 323.217 328.467 323.341 328.573C323.465 328.678 323.545 328.827 323.565 328.988L324.635 336.428C324.658 336.617 324.64 336.808 324.583 336.989C324.526 337.17 324.431 337.337 324.304 337.478C324.177 337.619 324.021 337.731 323.847 337.807C323.673 337.883 323.485 337.921 323.295 337.918C320.015 337.868 318.435 337.668 314.295 337.668C311.755 337.668 308.035 337.938 304.515 337.938C300.995 337.938 300.815 334.458 302.275 334.148C308.835 332.728 309.875 330.788 312.085 328.928C312.473 328.606 312.96 328.426 313.465 328.418Z" fill="#263238"/>
<path d="M286.205 101.698C284.545 105.878 282.755 109.858 280.745 113.838C278.762 117.88 276.517 121.788 274.025 125.538C273.355 126.538 272.685 127.438 271.935 128.378C271.535 128.858 271.205 129.288 270.755 129.798C270.223 130.388 269.637 130.927 269.005 131.408C267.77 132.322 266.376 133.001 264.895 133.408C263.56 133.779 262.18 133.961 260.795 133.948C258.311 133.921 255.847 133.499 253.495 132.698C252.38 132.339 251.288 131.911 250.225 131.418C249.146 130.941 248.097 130.396 247.085 129.788L248.895 125.898C252.715 126.898 256.995 127.618 260.405 127.128C261.844 126.996 263.204 126.416 264.295 125.468C264.506 125.267 264.697 125.046 264.865 124.808L265.685 123.668C266.235 122.878 266.765 122.018 267.295 121.158C268.345 119.418 269.345 117.598 270.295 115.738C271.245 113.878 272.205 111.998 273.105 110.078C274.885 106.258 276.645 102.328 278.275 98.4883L286.205 101.698Z" fill="#FFB573"/>
<path d="M282.895 90.269C278.735 91.269 273.604 102.709 273.604 102.709L283.514 115.409C283.514 115.409 293.754 100.919 292.384 96.499C290.944 91.889 287.895 89.039 282.895 90.269Z" fill="#263238"/>
<path d="M250.775 126.498L244.545 124.498L243.175 131.018C243.175 131.018 249.275 132.208 251.685 129.548L250.775 126.498Z" fill="#FFB573"/>
<path d="M238.765 125.299V129.959L243.175 131.069L244.535 124.549L238.765 125.299Z" fill="#FFB573"/>
<path d="M312.794 59.4895C312.614 67.7995 312.714 71.3195 308.694 75.7395C302.644 82.3895 292.474 80.3495 290.174 72.1495C288.104 64.7695 288.754 52.4195 296.734 48.7995C298.491 47.9939 300.425 47.6507 302.352 47.8027C304.279 47.9546 306.135 48.5966 307.744 49.6676C309.353 50.7387 310.662 52.2032 311.546 53.9222C312.429 55.6413 312.859 57.5577 312.794 59.4895Z" fill="#FFB573"/>
<path d="M324.224 78.1489C321.634 74.7489 322.104 71.0289 322.604 67.0889C323.164 62.6489 323.784 57.6489 319.974 52.4589C319.937 52.4079 319.904 52.3544 319.874 52.2989C310.364 38.8389 292.164 45.2289 290.774 52.2989C289.774 57.3789 291.054 55.7789 293.504 61.0289C295.954 66.2789 293.454 77.5689 292.504 81.5589C296.584 84.3189 319.094 84.7889 322.614 79.2789C320.494 75.9489 320.904 72.6189 321.614 69.1189C321.284 72.4389 321.344 75.5989 323.614 78.5989C323.65 78.6452 323.695 78.6828 323.747 78.7088C323.799 78.7348 323.856 78.7485 323.914 78.7489C323.997 78.7468 324.078 78.7188 324.144 78.6689C324.222 78.6093 324.274 78.5219 324.289 78.425C324.304 78.3281 324.281 78.2292 324.224 78.1489Z" fill="#263238"/>
<path d="M296.895 63.3387C296.758 64.9054 296.087 66.3776 294.995 67.5087C293.515 69.0387 291.995 68.1587 291.725 66.3487C291.495 64.7187 291.985 61.9587 293.785 61.0887C295.585 60.2187 296.985 61.4887 296.895 63.3387Z" fill="#FFB573"/>
<path d="M295.895 140.819C295.895 140.819 300.755 198.309 305.795 230.709C309.865 256.879 313.085 318.059 313.085 318.059H324.505C324.505 318.059 329.945 258.979 327.875 233.059C322.645 167.569 331.825 155.969 320.925 140.789L295.895 140.819Z" fill="url(#paint3_linear)"/>
<path opacity="0.2" d="M308.654 171.848C308.174 189.048 304.934 199.698 302.374 205.438C301.034 194.218 299.804 182.508 298.774 172.178C302.284 160.478 309.024 158.898 308.654 171.848Z" fill="black"/>
<path d="M329.494 295.969C329.493 295.932 329.482 295.897 329.462 295.866C329.443 295.835 329.415 295.809 329.383 295.792C329.351 295.775 329.314 295.767 329.278 295.768C329.241 295.769 329.205 295.78 329.174 295.799C328.834 296.049 325.844 298.309 325.904 299.479C325.906 299.587 325.937 299.694 325.993 299.787C326.049 299.88 326.129 299.956 326.224 300.009C326.371 300.104 326.538 300.164 326.712 300.181C326.886 300.198 327.062 300.174 327.224 300.109C328.354 299.659 329.104 297.349 329.454 296.009C329.464 296.006 329.472 296.001 329.479 295.994C329.486 295.987 329.491 295.978 329.494 295.969ZM326.294 299.419C326.294 298.759 327.784 297.419 328.944 296.479C328.414 298.279 327.734 299.479 327.104 299.749C326.995 299.792 326.876 299.807 326.759 299.793C326.642 299.78 326.53 299.737 326.434 299.669C326.394 299.65 326.359 299.621 326.334 299.584C326.31 299.547 326.296 299.503 326.294 299.459V299.419Z" fill="url(#paint4_linear)"/>
<path d="M329.495 295.969C329.49 295.934 329.476 295.901 329.452 295.874C329.429 295.848 329.399 295.828 329.365 295.819C329.275 295.819 327.165 294.969 325.915 295.529C325.734 295.609 325.57 295.724 325.435 295.869C325.299 296.013 325.194 296.183 325.125 296.369C324.935 296.889 325.125 297.159 325.305 297.289C326.095 297.839 328.585 296.849 329.425 296.149C329.453 296.13 329.475 296.102 329.488 296.07C329.5 296.038 329.503 296.002 329.495 295.969ZM325.445 296.699C325.472 296.516 325.544 296.343 325.656 296.196C325.768 296.049 325.916 295.933 326.085 295.859C327.009 295.622 327.984 295.677 328.875 296.019C327.875 296.669 326.005 297.259 325.535 296.919C325.499 296.896 325.472 296.862 325.456 296.823C325.44 296.784 325.436 296.74 325.445 296.699Z" fill="url(#paint5_linear)"/>
<path d="M334.954 288.509L330.194 295.409L323.574 291.129L314.914 285.519L313.904 284.869L318.654 277.969L319.794 278.699L328.184 284.129L334.954 288.509Z" fill="#FFB573"/>
<path opacity="0.2" d="M328.185 284.129L323.575 291.129L314.915 285.519L319.795 278.699L328.185 284.129Z" fill="black"/>
<path d="M286.894 140.818C286.894 140.818 274.364 197.958 274.364 227.368C274.364 253.938 319.364 290.528 319.364 290.528L325.694 280.968C325.694 280.968 294.914 238.888 296.694 230.368C301.884 205.648 310.534 152.368 310.434 140.818H286.894Z" fill="url(#paint6_linear)"/>
<path d="M328.665 295.04L332.775 286.58C332.843 286.432 332.963 286.314 333.113 286.249C333.262 286.185 333.43 286.178 333.585 286.23L340.745 288.52C340.923 288.584 341.086 288.684 341.223 288.815C341.36 288.946 341.468 289.105 341.54 289.28C341.611 289.456 341.645 289.644 341.639 289.834C341.633 290.023 341.587 290.209 341.505 290.38C340.015 293.3 339.155 294.64 337.345 298.38C336.235 300.67 334.165 305.53 332.635 308.69C331.105 311.85 327.885 310.5 328.245 309.05C329.845 302.52 329.245 299.35 328.515 296.55C328.382 296.045 328.435 295.509 328.665 295.04Z" fill="#263238"/>
<path d="M319.855 292.738L328.315 280.908L324.165 277.078L315.095 289.738L319.855 292.738Z" fill="#263238"/>
<path d="M311.484 318.278H326.034L326.804 313.178L311.404 312.658L311.484 318.278Z" fill="#263238"/>
<path d="M334.125 103.309L325.715 110.009L320.665 114.009C320.665 114.009 320.135 112.599 319.495 110.579C318.275 106.679 316.685 100.499 317.785 97.6591C319.515 93.1591 322.785 89.0991 326.925 89.9991C330.405 90.7891 334.125 103.309 334.125 103.309Z" fill="#263238"/>
<path opacity="0.2" d="M325.715 110.009L320.665 114.009C320.665 114.009 320.135 112.599 319.495 110.579L322.495 95.7285L325.715 110.009Z" fill="black"/>
<path d="M282.895 90.2696C282.895 90.2696 278.895 91.6696 286.895 140.82H320.895C320.325 126.98 320.305 118.44 326.895 90.0196C322.134 89.0371 317.308 88.4021 312.455 88.1196C307.311 87.7492 302.148 87.7492 297.005 88.1196C290.395 88.6996 282.895 90.2696 282.895 90.2696Z" fill="#263238"/>
<path d="M321.404 138.829L322.934 141.829C323.054 142.069 322.774 142.309 322.384 142.309H286.704C286.404 142.309 286.144 142.159 286.124 141.959L285.824 138.959C285.824 138.749 286.064 138.569 286.404 138.569H320.894C320.994 138.566 321.093 138.588 321.182 138.634C321.271 138.679 321.348 138.746 321.404 138.829Z" fill="url(#paint7_linear)"/>
<path opacity="0.2" d="M321.404 138.829L322.934 141.829C323.054 142.069 322.774 142.309 322.384 142.309H286.704C286.404 142.309 286.144 142.159 286.124 141.959L285.824 138.959C285.824 138.749 286.064 138.569 286.404 138.569H320.894C320.994 138.566 321.093 138.588 321.182 138.634C321.271 138.679 321.348 138.746 321.404 138.829Z" fill="black"/>
<path d="M316.775 142.699H317.705C317.885 142.699 318.025 142.599 318.015 142.489L317.575 138.489C317.575 138.369 317.405 138.279 317.225 138.279H316.295C316.115 138.279 315.975 138.369 315.985 138.489L316.425 142.489C316.435 142.579 316.595 142.699 316.775 142.699Z" fill="url(#paint8_linear)"/>
<path d="M294.414 142.699H295.334C295.524 142.699 295.664 142.599 295.644 142.489L295.214 138.489C295.214 138.369 295.044 138.279 294.854 138.279H293.894C293.714 138.279 293.574 138.369 293.584 138.489L294.014 142.489C294.074 142.579 294.234 142.699 294.414 142.699Z" fill="url(#paint9_linear)"/>
<defs>
<linearGradient id="paint0_linear" x1="306.583" y1="326.687" x2="310.14" y2="333.343" gradientUnits="userSpaceOnUse">
<stop offset="0.173992" stop-color="#1B1005"/>
<stop offset="1" stop-color="#D0A71C"/>
</linearGradient>
<linearGradient id="paint1_linear" x1="309.346" y1="323.92" x2="316.025" y2="327.921" gradientUnits="userSpaceOnUse">
<stop offset="0.173992" stop-color="#1B1005"/>
<stop offset="1" stop-color="#D0A71C"/>
</linearGradient>
<linearGradient id="paint2_linear" x1="286.787" y1="82.7648" x2="291.44" y2="100.217" gradientUnits="userSpaceOnUse">
<stop offset="0.173992" stop-color="#1B1005"/>
<stop offset="1" stop-color="#D0A71C"/>
</linearGradient>
<linearGradient id="paint3_linear" x1="280.346" y1="52.154" x2="397.38" y2="71.9759" gradientUnits="userSpaceOnUse">
<stop offset="0.173992" stop-color="#1B1005"/>
<stop offset="1" stop-color="#D0A71C"/>
</linearGradient>
<linearGradient id="paint4_linear" x1="324.183" y1="293.558" x2="332.694" y2="299.957" gradientUnits="userSpaceOnUse">
<stop offset="0.173992" stop-color="#1B1005"/>
<stop offset="1" stop-color="#D0A71C"/>
</linearGradient>
<linearGradient id="paint5_linear" x1="322.912" y1="294.282" x2="326.347" y2="300.987" gradientUnits="userSpaceOnUse">
<stop offset="0.173992" stop-color="#1B1005"/>
<stop offset="1" stop-color="#D0A71C"/>
</linearGradient>
<linearGradient id="paint6_linear" x1="249.769" y1="65.9633" x2="422.795" y2="120.852" gradientUnits="userSpaceOnUse">
<stop offset="0.173992" stop-color="#1B1005"/>
<stop offset="1" stop-color="#D0A71C"/>
</linearGradient>
<linearGradient id="paint7_linear" x1="268.029" y1="136.698" x2="269.642" y2="151.52" gradientUnits="userSpaceOnUse">
<stop offset="0.173992" stop-color="#1B1005"/>
<stop offset="1" stop-color="#D0A71C"/>
</linearGradient>
<linearGradient id="paint8_linear" x1="315.011" y1="136.069" x2="321.393" y2="138.782" gradientUnits="userSpaceOnUse">
<stop offset="0.173992" stop-color="#1B1005"/>
<stop offset="1" stop-color="#D0A71C"/>
</linearGradient>
<linearGradient id="paint9_linear" x1="292.596" y1="136.069" x2="299.045" y2="138.854" gradientUnits="userSpaceOnUse">
<stop offset="0.173992" stop-color="#1B1005"/>
<stop offset="1" stop-color="#D0A71C"/>
</linearGradient>
</defs>
</svg>
